<svg width="48" height="22" viewBox="0 0 48 22" fill="none" xmlns="http://www.w3.org/2000/svg">
<g id="Dify Logo">
<g id="if">
<path d="M21.2002 4.06706C22.5633 4.06706 23.0666 3.23169 23.0666 2.20064C23.0666 1.1696 22.5623 0.334229 21.2002 0.334229C19.838 0.334229 19.3337 1.1696 19.3337 2.20064C19.3337 3.23169 19.838 4.06706 21.2002 4.06706Z" fill="black"/>
<path d="M27.7336 4.46687V5.66725H24.6668V8.33423H27.7336V15.0012H22.6668V5.66819H15.9998V8.33517H19.7336V15.0021H15.3337V17.6691H35.3337V15.0021H30.6668V8.33517H35.3337V5.66819H30.6668V3.00121H35.3337V0.334229H31.8671C29.5877 0.334229 27.7336 2.18841 27.7336 4.46781V4.46687Z" fill="black"/>
</g>
<g id="Dy">
<path d="M5.66698 0.33346H0V17.6665H5.66698C12.667 17.6665 14.667 13.6665 14.667 8.9995C14.667 4.33252 12.667 0.33252 5.66698 0.33252V0.33346ZM5.73377 15.0004H3.20038V3.00044H5.73377C9.75823 3.00044 11.4666 4.97598 11.4666 9.00044C11.4666 13.0249 9.75823 15.0004 5.73377 15.0004Z" fill="black"/>
<path d="M44.8335 5.66742L42.1665 14.3344L39.4995 5.66742H36.333L40.2013 16.8791C40.604 18.0465 39.9229 19.0004 38.6886 19.0004H37.333V21.6674H39.3255C41.063 21.6674 42.6265 20.5686 43.2145 18.9336L48 5.66742H44.8335Z" fill="black"/>
</g>
</g>
</svg>